<svg width="24" height="24" viewBox="0 0 24 24" fill="none" xmlns="http://www.w3.org/2000/svg">
<g id="24 / Threads">
<path id="Threads" d="M12.6444 21C9.75322 20.981 7.53061 20.0462 6.03659 18.2222C4.70922 16.5977 4.02325 14.3386 4 11.5076V11.4943C4.02325 8.6614 4.70922 6.4042 6.03853 4.7797C7.53061 2.9538 9.75516 2.019 12.6444 2H12.656C14.8728 2.0152 16.7272 2.5738 18.167 3.6606C19.5215 4.6828 20.4749 6.1382 21 7.9888L19.3529 8.4391C18.4615 5.3041 16.206 3.7024 12.6482 3.6777C10.2997 3.6948 8.52274 4.4187 7.36783 5.8285C6.2885 7.149 5.73042 9.0566 5.70911 11.5C5.73042 13.9434 6.2885 15.851 7.36977 17.1715C8.52468 18.5832 10.3016 19.3071 12.6502 19.3223C14.7682 19.3071 16.1692 18.8226 17.3338 17.7035C18.6631 16.4267 18.6398 14.8592 18.2135 13.9054C17.9635 13.343 17.5082 12.8756 16.8939 12.5203C16.7389 13.59 16.392 14.4564 15.8572 15.11C15.1421 15.9821 14.1287 16.459 12.8459 16.5274C11.8751 16.5787 10.9391 16.3545 10.2144 15.8928C9.35598 15.3475 8.8541 14.5153 8.79984 13.5463C8.74752 12.6039 9.12926 11.7375 9.87336 11.1067C10.5845 10.5044 11.5844 10.151 12.7664 10.0845C13.6365 10.037 14.4523 10.075 15.2041 10.1966C15.1034 9.6095 14.9019 9.1421 14.5996 8.8058C14.1849 8.3422 13.5435 8.1066 12.6947 8.1009C12.687 8.1009 12.6792 8.1009 12.6715 8.1009C11.9894 8.1009 11.0631 8.2852 10.4741 9.1459L9.05563 8.213C9.84623 7.0616 11.129 6.427 12.6715 6.427C12.6831 6.427 12.6947 6.427 12.7064 6.427C15.2855 6.4422 16.8222 7.9907 16.9753 10.6925C17.0625 10.7286 17.1497 10.7666 17.2349 10.8046C18.4383 11.3594 19.318 12.1992 19.7811 13.2347C20.4245 14.6768 20.4846 17.0271 18.5313 18.9024C17.0373 20.335 15.2255 20.9829 12.656 21H12.6444ZM13.4602 11.7451C13.2644 11.7451 13.0668 11.7508 12.8633 11.7622C11.3809 11.8439 10.4566 12.5108 10.5089 13.4589C10.5632 14.4526 11.6813 14.9143 12.7568 14.8573C13.745 14.806 15.0317 14.4279 15.2487 11.9199C14.7023 11.804 14.1035 11.7451 13.4602 11.7451Z" fill="black" stroke="black" stroke-width="0.2"/>
</g>
</svg>
