<svg width="24" height="24" viewBox="0 0 24 24" fill="none" xmlns="http://www.w3.org/2000/svg">
<g id="24 / Create">
<g id="Create">
<path d="M12 6C12.5523 6 13 6.44772 13 7V11H17C17.5523 11 18 11.4477 18 12C18 12.5523 17.5523 13 17 13H13V17C13 17.5523 12.5523 18 12 18C11.4477 18 11 17.5523 11 17V13H7C6.44772 13 6 12.5523 6 12C6 11.4477 6.44772 11 7 11H11V7C11 6.44772 11.4477 6 12 6Z" fill="black"/>
<path fill-rule="evenodd" clip-rule="evenodd" d="M11.0055 2C9.61949 1.99999 8.51721 1.99999 7.62839 2.0738C6.71811 2.14939 5.94253 2.30755 5.23415 2.67552C4.1383 3.24477 3.24477 4.1383 2.67552 5.23415C2.30755 5.94253 2.14939 6.71811 2.0738 7.62839C1.99999 8.51721 1.99999 9.61948 2 11.0055V12.9945C1.99999 14.3805 1.99999 15.4828 2.0738 16.3716C2.14939 17.2819 2.30755 18.0575 2.67552 18.7658C3.24477 19.8617 4.1383 20.7552 5.23415 21.3245C5.94253 21.6925 6.71811 21.8506 7.62839 21.9262C8.5172 22 9.61946 22 11.0054 22H12.9945C14.3805 22 15.4828 22 16.3716 21.9262C17.2819 21.8506 18.0575 21.6925 18.7658 21.3245C19.8617 20.7552 20.7552 19.8617 21.3245 18.7658C21.6925 18.0575 21.8506 17.2819 21.9262 16.3716C22 15.4828 22 14.3805 22 12.9946V11.0055C22 9.61955 22 8.5172 21.9262 7.62839C21.8506 6.71811 21.6925 5.94253 21.3245 5.23415C20.7552 4.1383 19.8617 3.24477 18.7658 2.67552C18.0575 2.30755 17.2819 2.14939 16.3716 2.0738C15.4828 1.99999 14.3805 1.99999 12.9945 2H11.0055ZM6.1561 4.45035C6.53142 4.25538 7.00955 4.13208 7.79391 4.06694C8.59025 4.0008 9.60949 4 11.05 4H12.95C14.3905 4 15.4097 4.0008 16.2061 4.06694C16.9905 4.13208 17.4686 4.25538 17.8439 4.45035C18.5745 4.82985 19.1702 5.42553 19.5497 6.1561C19.7446 6.53142 19.8679 7.00955 19.9331 7.79391C19.9992 8.59025 20 9.60949 20 11.05V12.95C20 14.3905 19.9992 15.4097 19.9331 16.2061C19.8679 16.9905 19.7446 17.4686 19.5497 17.8439C19.1702 18.5745 18.5745 19.1702 17.8439 19.5497C17.4686 19.7446 16.9905 19.8679 16.2061 19.9331C15.4097 19.9992 14.3905 20 12.95 20H11.05C9.60949 20 8.59025 19.9992 7.79391 19.9331C7.00955 19.8679 6.53142 19.7446 6.1561 19.5497C5.42553 19.1702 4.82985 18.5745 4.45035 17.8439C4.25538 17.4686 4.13208 16.9905 4.06694 16.2061C4.0008 15.4097 4 14.3905 4 12.95V11.05C4 9.60949 4.0008 8.59025 4.06694 7.79391C4.13208 7.00955 4.25538 6.53142 4.45035 6.1561C4.82985 5.42553 5.42553 4.82985 6.1561 4.45035Z" fill="black"/>
</g>
</g>
</svg>
